# xmcd
#
# Track frame offsets:
#	150
#	14855
#	32448
#	50996
#	73430
#	88659
#	105530
#	119024
#	138527
#	149703
#	168189
#	182889
#
# Disc length: 2738 seconds
#
# Revision: 0
# Processed by: cddbd v1.5.1PL0 Copyright (c) Steve Scherf et al.
# Submitted via: dBpowerAMP V4.0
#
DISCID=c00ab00c
DTITLE=Blind Boys of Alabama - If I Had A Hammer
DYEAR=1900
DGENRE=Soul
TTITLE0=Down By The Riverside
TTITLE1=You'll Never Walk Alone
TTITLE2=Hush
TTITLE3=If I Had A Hammer
TTITLE4=Nobody Knows The Trouble I've Seen
TTITLE5=Lord Will Make A Way
TTITLE6=No Dope
TTITLE7=Holdin' On
TTITLE8=King Jesus
TTITLE9=Do Lord
TTITLE10=Didn't It Rain
TTITLE11=Amazing Grace (Live)
EXTD=
EXTT0=
EXTT1=
EXTT2=
EXTT3=
EXTT4=
EXTT5=
EXTT6=
EXTT7=
EXTT8=
EXTT9=
EXTT10=
EXTT11=
PLAYORDER=
